<?xml version="1.0" encoding="UTF-8"?>
<svg viewBox="0 0 143.99982 144.00038" xmlns="http://www.w3.org/2000/svg">
 <defs>
  <linearGradient id="b" x1="526.21" x2="543.41" gradientUnits="userSpaceOnUse">
   <stop stop-color="#5e5e5e" offset="0"/>
   <stop stop-color="#898989" offset="1"/>
  </linearGradient>
  <radialGradient id="a" cx="534.81" cy="814.71" r="8.5997" gradientUnits="userSpaceOnUse">
   <stop stop-color="#252525" offset="0"/>
   <stop stop-color="#754110" offset=".2085"/>
   <stop stop-color="#563e20" offset=".5304"/>
   <stop stop-color="#322f2d" offset=".6862"/>
   <stop stop-color="#2b2a2a" offset="1"/>
  </radialGradient>
 </defs>
 <path transform="matrix(1.4864 0 0 1.4805 -735.1 -1134.1)" d="m591.41 814.67c0 26.859-21.686 48.633-48.438 48.633s-48.438-21.774-48.438-48.633 21.686-48.633 48.438-48.633 48.438 21.774 48.438 48.633z" fill="#1a1a1a"/>
 <path transform="matrix(1.1686 0 0 1.1048 -562.49 -828.01)" d="m591.41 814.67c0 27.454-21.686 49.71-48.438 49.71s-48.438-22.256-48.438-49.71 21.686-49.71 48.438-49.71 48.438 22.256 48.438 49.71z" fill="#333"/>
 <path transform="matrix(1.0939 0 0 1.0342 -521.96 -770.52)" d="m591.41 814.67c0 27.454-21.686 49.71-48.438 49.71s-48.438-22.256-48.438-49.71 21.686-49.71 48.438-49.71 48.438 22.256 48.438 49.71z" fill="none" stroke="#7d7d7d" stroke-width="3.7108"/>
 <path transform="translate(-676 -1024)" d="m748 1041.1c-2.813 0-5.5783 0.2092-8.2812 0.5937 0 0 2.3621 26.48-7 33.281s-35.219-3.7813-35.219-3.7813c-2.4454 4.6758-4.2035 9.735-5.1875 15.062 0 0 27.337 6.5995 30.969 17.781s-14.25 31.781-14.25 31.781c3.9897 3.6775 8.5391 6.7874 13.5 9.2187 0 0 14.023-23.031 25.469-23.031s25.469 23.031 25.469 23.031c4.9609-2.4313 9.5103-5.5412 13.5-9.2187 0 0-17.882-20.6-14.25-31.781s30.969-17.781 30.969-17.781c-0.98402-5.3275-2.7421-10.387-5.1875-15.062 0 0-25.857 10.582-35.219 3.7813s-7-33.281-7-33.281c-2.703-0.3845-5.4682-0.5937-8.2812-0.5937z" fill="#939393"/>
 <path transform="matrix(1.1686 0 0 1.1048 -562.49 -828.01)" d="m591.41 814.67c0 27.454-21.686 49.71-48.438 49.71s-48.438-22.256-48.438-49.71 21.686-49.71 48.438-49.71 48.438 22.256 48.438 49.71z" fill="none" stroke="#939393" stroke-width="3.7108"/>
 <path transform="matrix(2.0561 0 0 2.039 -1027.6 -1589.2)" d="m543.41 814.71c0 4.942-3.8502 8.9484-8.5997 8.9484s-8.5997-4.0063-8.5997-8.9484 3.8502-8.9484 8.5997-8.9484 8.5997 4.0063 8.5997 8.9484z" fill="url(#b)"/>
 <path transform="matrix(1.46 0 0 1.4478 -708.8 -1107.5)" d="m543.41 814.71c0 4.942-3.8502 8.9484-8.5997 8.9484s-8.5997-4.0063-8.5997-8.9484 3.8502-8.9484 8.5997-8.9484 8.5997 4.0063 8.5997 8.9484z" fill="url(#a)"/>
 <path transform="translate(-675 -1025)" d="m764 1084c0 2.2091-1.7909 4-4 4s-4-1.7909-4-4 1.7909-4 4-4 4 1.7909 4 4z" fill="#5e5b51"/>
 <path transform="translate(-702 -1025)" d="m764 1084c0 2.2091-1.7909 4-4 4s-4-1.7909-4-4 1.7909-4 4-4 4 1.7909 4 4z" fill="#5e5b51"/>
 <path transform="translate(-675 -999)" d="m764 1084c0 2.2091-1.7909 4-4 4s-4-1.7909-4-4 1.7909-4 4-4 4 1.7909 4 4z" fill="#5e5b51"/>
 <path transform="translate(-702 -999)" d="m764 1084c0 2.2091-1.7909 4-4 4s-4-1.7909-4-4 1.7909-4 4-4 4 1.7909 4 4z" fill="#5e5b51"/>
</svg>
